<?xml version="1.0" encoding="UTF-8"?>
<svg id="wrapper" xmlns="http://www.w3.org/2000/svg" version="1.1" viewBox="0 0 117.4 34.5">
  <!-- Generator: Adobe Illustrator 30.1.0, SVG Export Plug-In . SVG Version: 2.1.1 Build 136)  -->
  <path d="M116.8,15.4h0c-1.5-1.6-3.2-2-5.2-2s-3.7.1-5.2.4c-2.3.3-4.6,1-6.8,1.7-.5.2-1,.3-1.5.5-.2,0-.6.2-1,.3-.2,0-.3.1-.4.1-5.6,1.9-13.7,5-19.8,10,0-.6-.1-1.1-.2-1.7-.2-1.7-.4-3.5-.4-5.2s.5-5.4,2.2-5.4,1,.6,1.1,1.1v.7c.1.4.2,1.1.8,1.1s.6-.3.6-.7-.1-1.1-.3-1.6c-.3-.9-1.1-1.9-2.3-1.9-3.3,0-3.4,5.6-3.4,6.7s0,.5,0,.7c-.2.2-.5.5-.7.7-1.1,1.1-2.3,2.2-3.4,3.2-1.1,1-2.2,1.8-3.5,2.5-.7.3-1.3.6-2.1.8-.9.1-1.4-.2-1.6-1.1-.2-.5-.3-1.1-.1-1.7,0-.2.1-.4.4-.4,2-.2,3.3-1.6,4.5-2.9.6-.7,1.1-1.5,1.2-2.5.1-1.2-.6-1.9-1.8-1.7-1,.1-1.7.7-2.4,1.3-.7.7-1.2,1.4-1.7,2.2-.1.1-.2.2-.3.4-1.1,1.2-2.2,2.4-3.5,3.4-.6.5-1.2.9-2,1.2-.8.3-1.2,0-1.3-.7,0-.5,0-1,0-1.4.1-1.5.4-3,.9-4.4.1-.5.2-.9.3-1.4s0-.5-.3-.6c-.3-.1-.5,0-.7,0-.5.4-.9.9-1.3,1.3-1.4,1.6-2.8,3.2-4.5,4.6-.5.4-1,.7-1.5,1.1-.2.1-.4.3-.6.1-.2,0-.2-.3-.2-.5.2-1.5.6-2.9,1.3-4.2.2-.3.4-.6.4-.7,0,0,.1-.2.2-.3.2-.3.2-.6-.1-.8-.3-.2-.6-.2-.9.1l-.4.5s0,.1,0,.2c0,.1-.2.2-.3.4,0,.1-.2.3-.3.4-1,1.3-3.4,4.4-5,4.4s-1.8-1.2-2.2-1.8c-.1-.2-.3-.6-.4-.9-.5-1.2-1.2-2.9-2.5-2.9s-2.9,2.3-4.4,6.9c0-1.2.2-2.3.4-3.3l.9-5.3v-.4c.3-1.3.6-2.7,1-4h0c3.2-3.2,5.3-6.1,6.4-9.2,0,0,0-.2.1-.3.2-.5.4-1,.4-1.5S42.7,0,42.1,0s-.9.2-1.3.5h-.1c-2.1,1.6-3.7,5.4-4.3,6.9-.2.7-.5,1.3-.7,2-.2.6-.4,1.2-.6,1.8-3,3.2-6.9,4.6-10.6,5.9-2.3.8-4.4,1.4-6.5,1.7-1.2.2-2.4.4-3.6.6-1.6.2-3.2.5-4.8.8-.2,0-.4,0-.7.1-1.8.3-3.6.6-5.2,1.4-.9.4-1.7,1-2.6,1.8,0,0-.7.5-.8.6-.2.1-.4.3-.4.6s.3.6.6.6.3,0,.5-.2c.2-.1.3-.3.5-.4.7-.6,1.4-1.1,2.2-1.6,1.3-.8,4.8-1.6,6.3-1.7,1.1-.2,5.7-.9,6.7-1,1.8-.3,3.3-.6,4.6-.9,1.8-.5,3.4-1.1,5.2-1.7l.5-.2c3.2-1.1,5-2.1,7.4-4.1l-.3,1.7c0,.2-.2,1.1-1,5.9-.6,3.2-.7,6.5-.7,10.5h0c0,.4.3.6.6.6s.5-.1.6-.6c.8-4.2,1.6-7.5,3.5-10.8h0c.2-.5.8-1.4,1.1-1.4s.8.7,1,1.2c0,0,0,.1,0,.2.5,1.7,2.1,4.2,4.1,4.2s3.1-1.5,4.1-2.5c0,0,0,0,0,0-.1.5-.2,1-.2,1.5,0,.4,0,.8,0,1.1.1.8.8,1.2,1.5.9.5-.2.9-.5,1.3-.8,1.2-.8,2.2-1.7,3.2-2.7.5-.4.9-.9,1.3-1.3s.3-.5.6-.4c.3,0,.1.4.1.7-.1.9-.2,1.9-.3,2.5,0,.9,0,1.4.1,1.9.3,1.1,1,1.5,2.1,1.3.4,0,.8-.2,1.2-.3.7-.3,1.2-.7,1.8-1.1.7-.5,1.3-1.1,1.9-1.7-.1.5-.2,1-.2,1.5,0,.5.1,1.1.3,1.6.3,1.1,1.2,1.8,2.5,1.8s1.7-.3,2.4-.6c1.2-.6,2.4-1.3,3.4-2.2,1.5-1.2,2.9-2.5,4.2-3.9,0,.4,0,.9.1,1.3,0,.4.1.8.2,1.2.1,1,.3,2,.3,2.9h0c-1,1.2-3.4,3.6-3.4,5.5s.7,1.9,1.7,1.9c1.7,0,2.6-2.7,2.8-4.1,0-.6.1-1.3.1-1.9,0-.2,0-.4,0-.6.3-.3.6-.6,1-.8.2-.1.3-.2.5-.4,6.3-4.8,14.5-7.8,18.9-9.2l4.7-1.4c3.5-1,6.2-1.4,9.6-1.4s3.5.2,4.5,1.8c0,0,0,.2.1.3.1.2.2.5.6.5s.6-.2.6-.6-.3-1-.6-1.3ZM67.1,18.5h0c.2-.1.6-.3.9-.3.2,0,.4,0,.4.4,0,.4-.2.7-.4,1.1-.8,1.3-2,2.2-3.4,2.9,0,0-.2,0-.3,0,0,0,0-.1,0-.2.6-1.5,1.5-2.9,2.9-3.8ZM37,9.2h0c.7-2,2.3-6.6,4.8-7.9,0,0,0,0,0,0-1,3.2-3.1,5.9-4.8,7.9h0ZM74.6,32.8c-.2.2-.4.5-.6.5s-.5-.3-.5-.6c0-.9,1.3-2.7,2.2-3.6,0,1.3-.3,2.9-1.1,3.7Z"/>
</svg>